<?xml version="1.0" encoding="UTF-8"?>
<svg xmlns="http://www.w3.org/2000/svg" xmlns:xlink="http://www.w3.org/1999/xlink" width="244" height="24.456" viewBox="0 0 244 24.456">
  <defs>
    <style>.a{fill:#d20a10;}.b{clip-path:url(#a);}</style>
    <clipPath id="a">
      <path class="a" d="M0-43.731H244V-68.187H0Z" transform="translate(0 68.187)"></path>
    </clipPath>
  </defs>
  <g class="b">
    <path class="a" d="M244-68.187h-5.07v24.456H244Zm0,24.456-8.567,0L220.48-53.137h7.665a6.1,6.1,0,0,0,2.44-.495,6.421,6.421,0,0,0,1.993-1.355A6.376,6.376,0,0,0,233.933-57a5.99,5.99,0,0,0,.494-2.423v-2.486a6.1,6.1,0,0,0-.494-2.44,6.432,6.432,0,0,0-1.355-1.993,6.433,6.433,0,0,0-1.993-1.355,6.109,6.109,0,0,0-2.44-.494H204.834v5.07h0v10.493h0v8.894h5.133v-9.406h2.276l15.407,9.406ZM209.9-58.208v-4.909h18.181a1.21,1.21,0,0,1,.23.022,1.211,1.211,0,0,1,.612.329,1.145,1.145,0,0,1,.367.861v2.486a1.144,1.144,0,0,1-.367.861,1.185,1.185,0,0,1-.844.351ZM171.067-43.732h28.985v-5.038h-23.9v-4.368h23.9v-5.07h-23.9v-4.91h23.9v-5.069H171.067v5.069h.006v4.91h-.006ZM165.792-57a5.988,5.988,0,0,0,.494-2.423v-2.486a6.1,6.1,0,0,0-.494-2.44,6.448,6.448,0,0,0-1.355-1.993,6.423,6.423,0,0,0-1.993-1.355,5.985,5.985,0,0,0-1.184-.371A6.307,6.307,0,0,0,160-68.187H136.758v5.07h0v4.91h0v14.476h5.072v-9.406H160a6.1,6.1,0,0,0,2.439-.494,6.436,6.436,0,0,0,1.993-1.355A6.4,6.4,0,0,0,165.792-57m-4.578-2.424a1.144,1.144,0,0,1-.367.861,1.186,1.186,0,0,1-.845.351H141.824v-4.909H160a1.194,1.194,0,0,1,.231.022,1.212,1.212,0,0,1,.612.328,1.145,1.145,0,0,1,.367.861ZM131.481-57a6,6,0,0,0,.494-2.423v-2.486a6.112,6.112,0,0,0-.494-2.44,6.455,6.455,0,0,0-1.355-1.993,6.426,6.426,0,0,0-1.993-1.355,6.1,6.1,0,0,0-2.438-.494H102.436v15.562h0v8.894h5.08v-9.406h18.176a6.1,6.1,0,0,0,2.438-.494,6.438,6.438,0,0,0,1.993-1.355A6.406,6.406,0,0,0,131.481-57m-4.588-2.423a1.142,1.142,0,0,1-.367.861,1.186,1.186,0,0,1-.84.35H107.5v-4.909h18.181a1.186,1.186,0,0,1,.845.351,1.141,1.141,0,0,1,.367.861ZM92.6-43.732h5.07v-18.11a6.248,6.248,0,0,0-.494-2.471c0-.011-.011-.022-.016-.033a6.369,6.369,0,0,0-1.339-1.976,6.609,6.609,0,0,0-2.009-1.371,6.139,6.139,0,0,0-2.455-.494H74.07a6.139,6.139,0,0,0-2.455.494,6.612,6.612,0,0,0-2.009,1.371,6.368,6.368,0,0,0-1.339,1.976l-.016.033a6.254,6.254,0,0,0-.494,2.471v18.11h5.071v-9.406H92.6v9.406ZM74.721-63.117h16.6a1.268,1.268,0,0,1,.909.367,1.269,1.269,0,0,1,.367.908v3.634H72.826v-3.634a1.268,1.268,0,0,1,.367-.908,1.267,1.267,0,0,1,.909-.367ZM62.48-57a5.99,5.99,0,0,0,.494-2.423v-2.486a6.1,6.1,0,0,0-.494-2.44,6.447,6.447,0,0,0-1.355-1.993,6.425,6.425,0,0,0-1.994-1.355,6.094,6.094,0,0,0-2.439-.494H33.447v15.562h0v8.894h5.07v-9.406H56.693a6.1,6.1,0,0,0,2.439-.494,6.438,6.438,0,0,0,1.994-1.355A6.4,6.4,0,0,0,62.48-57M57.9-59.419a1.142,1.142,0,0,1-.367.861,1.185,1.185,0,0,1-.844.351H38.512v-4.91H56.693a1.186,1.186,0,0,1,.844.351,1.143,1.143,0,0,1,.367.861ZM28.171-47.558a5.981,5.981,0,0,0,.494-2.423v-1.945a6.1,6.1,0,0,0-.494-2.439,6.419,6.419,0,0,0-1.355-1.993,6.435,6.435,0,0,0-1.993-1.355,6.1,6.1,0,0,0-2.44-.495H6.282a1.169,1.169,0,0,1-.861-.351,1.168,1.168,0,0,1-.351-.861v-2.486a1.169,1.169,0,0,1,.351-.861,1.17,1.17,0,0,1,.861-.351H28.665v-5.07H6.282a5.987,5.987,0,0,0-2.423.494,6.382,6.382,0,0,0-2.009,1.355A6.442,6.442,0,0,0,.494-64.345,6.1,6.1,0,0,0,0-61.905v2.486A5.989,5.989,0,0,0,.494-57a6.393,6.393,0,0,0,1.355,2.009,6.394,6.394,0,0,0,2.009,1.355,5.993,5.993,0,0,0,2.423.494h16.1a1.17,1.17,0,0,1,.861.351,1.171,1.171,0,0,1,.35.861v1.945a1.171,1.171,0,0,1-.35.861,1.171,1.171,0,0,1-.861.351H0v5.038H22.383a6.1,6.1,0,0,0,2.44-.494,6.562,6.562,0,0,0,1.993-1.339,6.176,6.176,0,0,0,1.355-1.993" transform="translate(0 68.187)"></path>
  </g>
</svg>
